<?xml version="1.0" encoding="UTF-8"?>
<svg width="40px" height="40px" viewBox="0 0 40 40" version="1.1" xmlns="http://www.w3.org/2000/svg" xmlns:xlink="http://www.w3.org/1999/xlink">
    <!-- Generator: Sketch 54.1 (76490) - https://sketchapp.com -->
    <title>Artboard</title>
    <desc>Created with Sketch.</desc>
    <g id="Artboard" stroke="none" stroke-width="1" fill="none" fill-rule="evenodd">
        <g id="medium" transform="translate(0.000000, 4.000000)" fill="#1B1B1B" fill-rule="nonzero">
            <path d="M4.74320611,6.48 C4.7929231,5.98880677 4.60569672,5.50330977 4.23908397,5.17276018 L0.503816794,0.671945701 L0.503816794,0 L12.1007634,0 L21.0641221,19.6638801 L28.9450382,0 L40,0 L40,0.672251131 L36.8067176,3.73479638 C36.5314331,3.94469134 36.3948673,4.28972939 36.4519084,4.63123303 L36.4519084,27.1334729 C36.3948673,27.4749765 36.5314331,27.8200145 36.8067176,28.0299095 L39.9251908,31.0924548 L39.9251908,31.7647059 L24.239084,31.7647059 L24.239084,31.0924548 L27.4696183,27.9550792 C27.7871756,27.6374321 27.7871756,27.544276 27.7871756,27.058948 L27.7871756,8.87029412 L18.8048855,31.6898756 L17.5908397,31.6898756 L7.13343511,8.87029412 L7.13343511,24.1643891 C7.04629935,24.8074108 7.25981118,25.4547734 7.71236641,25.9196946 L11.9138931,31.0176244 L11.9138931,31.6898756 L0,31.6898756 L0,31.0179299 L4.20152672,25.9196946 C4.65083932,25.4540312 4.85194181,24.8023611 4.74320611,24.1643891 L4.74320611,6.48 Z" id="Path"></path>
        </g>
    </g>
</svg>