<?xml version="1.0" encoding="UTF-8"?>
<svg width="40px" height="40px" viewBox="0 0 40 40" version="1.1" xmlns="http://www.w3.org/2000/svg" xmlns:xlink="http://www.w3.org/1999/xlink">
    <!-- Generator: Sketch 54.1 (76490) - https://sketchapp.com -->
    <title>Artboard</title>
    <desc>Created with Sketch.</desc>
    <g id="Artboard" stroke="none" stroke-width="1" fill="none" fill-rule="evenodd">
        <g id="twitter" transform="translate(0.000000, 4.000000)" fill="#1B1B1B" fill-rule="nonzero">
            <path d="M12.576,32.576 C27.664,32.576 35.92,20.064 35.92,9.232 C35.92,8.88 35.92,8.528 35.904,8.176 C37.504,7.024 38.896,5.568 40,3.92 C38.528,4.576 36.944,5.008 35.28,5.216 C36.976,4.208 38.272,2.592 38.896,0.672 C37.312,1.616 35.552,2.288 33.68,2.656 C32.176,1.056 30.048,0.064 27.696,0.064 C23.168,0.064 19.488,3.744 19.488,8.272 C19.488,8.912 19.568,9.536 19.696,10.144 C12.88,9.808 6.832,6.528 2.784,1.568 C2.08,2.784 1.68,4.192 1.68,5.696 C1.68,8.544 3.136,11.056 5.328,12.528 C3.984,12.48 2.72,12.112 1.616,11.504 L1.616,11.616 C1.616,15.584 4.448,18.912 8.192,19.664 C7.504,19.856 6.784,19.952 6.032,19.952 C5.504,19.952 4.992,19.904 4.496,19.808 C5.536,23.072 8.576,25.44 12.16,25.504 C9.344,27.712 5.808,29.024 1.968,29.024 C1.312,29.024 0.656,28.992 0.016,28.912 C3.632,31.216 7.952,32.576 12.576,32.576" id="Path"></path>
        </g>
    </g>
</svg>