<svg width="40" height="40" xmlns="http://www.w3.org/2000/svg">
  <path d="M12.576 36.576c15.088 0 23.344-12.512 23.344-23.344 0-.352 0-.704-.016-1.056A16.715 16.715 0 0 0 40 7.92a16.628 16.628 0 0 1-4.72 1.296 8.255 8.255 0 0 0 3.616-4.544 16.32 16.32 0 0 1-5.216 1.984 8.189 8.189 0 0 0-5.984-2.592c-4.528 0-8.208 3.68-8.208 8.208 0 .64.08 1.264.208 1.872-6.816-.336-12.864-3.616-16.912-8.576A8.206 8.206 0 0 0 1.68 9.696a8.227 8.227 0 0 0 3.648 6.832 8.299 8.299 0 0 1-3.712-1.024v.112a8.222 8.222 0 0 0 6.576 8.048 7.999 7.999 0 0 1-2.16.288c-.528 0-1.04-.048-1.536-.144a8.204 8.204 0 0 0 7.664 5.696 16.456 16.456 0 0 1-10.192 3.52c-.656 0-1.312-.032-1.952-.112a23.338 23.338 0 0 0 12.56 3.664" fill="#1B1B1B" fill-rule="nonzero"/>
</svg>