<svg xmlns="http://www.w3.org/2000/svg" width="528.707" height="370.373"><path fill="#1B1B1B" d="m211.637 264.554 137.104-79.558-137.104-79.17Zm-153.706 94.62c-22.787-6.18-40.552-24.331-47.117-46.731C0 271.119 0 184.996 0 184.996s0-86.123 10.814-127.06c6.565-22.785 24.33-40.552 47.117-46.73C98.868.005 264.16.005 264.16.005s165.682 0 206.619 11.2c23.172 6.178 40.55 23.945 46.732 46.73 11.197 40.937 11.197 127.06 11.197 127.06s0 86.123-11.197 127.447c-6.181 22.4-23.56 40.55-46.732 46.73-40.937 11.2-206.619 11.2-206.619 11.2s-165.293 0-206.23-11.2"/><path fill="#fff" d="m211.637 264.554 137.104-79.558-137.104-79.17Z"/></svg>